HIERARCHY
ROOT hip
{
	OFFSET 0.000000 0.000000 0.000000 
	CHANNELS 6 Xposition Yposition Zposition Xrotation Zrotation Yrotation
	JOINT abdomen
	{
		OFFSET 0.000000 3.402643 0.000000 
		CHANNELS 3 Xrotation Zrotation Yrotation
		JOINT chest
		{
			OFFSET 0.000000 8.438565 -0.680529 
			CHANNELS 3 Xrotation Zrotation Yrotation
			JOINT neck
			{
				OFFSET 0.000000 10.207942 -0.272212 
				CHANNELS 3 Xrotation Zrotation Yrotation
				JOINT head
				{
					OFFSET 0.000000 3.130431 0.000000 
					CHANNELS 3 Xrotation Zrotation Yrotation
					End Site
					{
						OFFSET 0.000000 3.130435 0.000000 
					}
				}
			}
			JOINT lCollar
			{
				OFFSET 3.470700 6.669187 -0.816635 
				CHANNELS 3 Yrotation Zrotation Xrotation
				JOINT lShldr
				{
					OFFSET 3.198488 0.000000 0.000000 
					CHANNELS 3 Zrotation Yrotation Xrotation
					JOINT lForeArm
					{
						OFFSET 10.139888 0.000000 0.000000 
						CHANNELS 3 Yrotation Zrotation Xrotation
						JOINT lHand
						{
							OFFSET 8.370511 0.000000 0.000000 
							CHANNELS 3 Zrotation Yrotation Xrotation
							End Site
							{
								OFFSET 4.083176 0.000000 0.000000 
							}
						}
					}
				}
			}
			JOINT rCollar
			{
				OFFSET -3.470700 6.669187 -0.816635 
				CHANNELS 3 Yrotation Zrotation Xrotation
				JOINT rShldr
				{
					OFFSET -3.198488 0.000000 0.000000 
					CHANNELS 3 Zrotation Yrotation Xrotation
					JOINT rForeArm
					{
						OFFSET -10.139888 0.000000 0.000000 
						CHANNELS 3 Yrotation Zrotation Xrotation
						JOINT rHand
						{
							OFFSET -8.370511 0.000000 0.000000 
							CHANNELS 3 Zrotation Yrotation Xrotation
							End Site
							{
								OFFSET -4.083176 0.000000 0.000000 
							}
						}
					}
				}
			}
		}
	}
	JOINT lThigh
	{
		OFFSET 5.308129 -1.633274 1.361059 
		CHANNELS 3 Xrotation Zrotation Yrotation
		JOINT lShin
		{
			OFFSET -2.041588 -20.007561 0.000000 
			CHANNELS 3 Xrotation Zrotation Yrotation
			JOINT lFoot
			{
				OFFSET 0.000000 -19.190928 -1.224953 
				CHANNELS 3 Xrotation Yrotation Zrotation
				End Site
				{
					OFFSET 0.000000 -2.449906 4.627600 
				}
			}
		}
	}
	JOINT rThigh
	{
		OFFSET -5.308129 -1.633274 1.361059 
		CHANNELS 3 Xrotation Zrotation Yrotation
		JOINT rShin
		{
			OFFSET 2.041588 -20.007561 0.000000 
			CHANNELS 3 Xrotation Zrotation Yrotation
			JOINT rFoot
			{
				OFFSET 0.000000 -19.190928 -1.224953 
				CHANNELS 3 Xrotation Yrotation Zrotation
				End Site
				{
					OFFSET 0.000000 -2.449906 4.627600 
				}
			}
		}
	}
}
MOTION
Frames: 18
Frame Time: 0.033333
3.607728 42.934258 3.607728 -5.605467 0.019243 -1.144483 47.406433 6.837428 -27.680780 10.588985 -0.198210 -9.270772 -8.544922 -0.001505 -0.009645 -10.220774 16.576666 31.645954 2.000000 -2.000000 0.000000 11.718917 -47.215424 -57.495903 -35.138706 -0.671195 8.459564 -8.672410 -3.530359 29.017929 -2.000000 2.000000 0.000000 13.969267 105.332069 -16.434982 42.726643 0.615302 8.511357 23.030880 -30.126270 -84.705040 -49.166332 7.918917 -1.462142 65.943810 0.813421 -4.009969 -11.750734 -1.784077 -5.740636 -10.465919 -9.685248 3.769368 61.160164 -0.516414 3.844027 -45.601177 -3.970523 7.877181 
4.243817 39.818886 4.243817 -5.820377 -0.282101 -2.070890 49.427483 6.117373 -24.503811 11.497809 -0.138281 -7.566579 -8.544922 -0.001505 -0.009645 -13.378041 15.800760 26.564007 2.000000 -2.000000 0.000000 -19.859900 -36.689880 -37.932217 -41.825012 -0.628034 8.516122 -8.672410 -3.530359 29.017929 -2.000000 2.000000 0.000000 98.678291 79.601837 57.316666 45.670753 0.595150 8.540125 19.677864 -33.251366 -68.160065 -58.329350 7.470583 -1.940854 78.045982 1.642586 -4.196662 -14.800015 -1.900408 -5.574779 -17.818302 -10.037232 5.412206 73.846886 -1.376598 4.109780 -51.110664 -4.525792 8.908772 
4.884918 37.514988 4.884917 -6.035466 -0.592937 -3.081901 51.492702 5.269983 -21.224756 12.454024 -0.076322 -5.805526 -8.544922 -0.001505 -0.009645 -16.533766 14.744742 21.374846 2.000000 -2.000000 0.000000 -43.239670 -19.708637 -27.012735 -48.779057 -0.587679 8.565799 -8.672410 -3.530359 29.017929 -2.000000 2.000000 0.000000 73.363754 62.331741 18.430613 48.799549 0.580055 8.566391 15.091398 -35.497307 -50.133320 -65.903236 7.040262 -2.303817 88.005249 2.363384 -4.226825 -17.154858 -1.168215 -5.474254 -24.078619 -10.106546 6.728337 84.458351 -2.138483 4.179048 -55.579624 -5.053194 9.765326 
5.030160 36.362980 5.030160 -6.133295 -0.738705 -4.412899 53.471531 4.417002 -18.125324 13.419909 -0.013539 -4.277974 -8.544922 -0.001505 -0.009645 -18.972801 13.395127 16.833963 2.000000 -2.000000 0.000000 -59.819275 -1.771240 -23.452892 -55.347256 -0.557557 8.633692 -8.672410 -3.530359 29.017929 -2.000000 2.000000 0.000000 75.764717 45.931850 5.117791 52.290230 0.559158 8.603298 10.092565 -36.305153 -32.249992 -69.330917 6.698843 -2.494785 92.178787 2.645375 -4.186999 -17.644972 1.746478 -5.423112 -27.184721 -10.038175 7.246075 89.428558 -2.509513 4.171458 -57.379707 -5.922143 10.097769 
4.258843 35.902172 4.258843 -5.976783 -0.554698 -6.309231 55.265385 3.713149 -15.516357 14.385724 0.068817 -3.261615 -8.544922 -0.001505 -0.009645 -20.011086 11.966147 13.574855 2.000000 -2.000000 0.000000 -71.996246 12.186040 -24.479092 -60.886341 -0.537095 8.680789 -8.672410 -3.530359 29.017929 -2.000000 2.000000 0.000000 82.851112 33.949451 -3.983847 56.303986 0.544273 8.633458 5.863413 -35.784954 -16.405138 -70.433441 6.777051 -2.993779 93.260971 2.723951 -4.177756 -17.307629 5.250399 -5.887233 -28.772192 -9.666561 7.066816 91.515663 -2.636300 4.157687 -57.704388 -6.729857 9.773840 
2.085123 36.297970 2.085123 -5.497949 0.163722 -9.029551 56.780102 3.360608 -13.636674 15.313128 0.131787 -3.066159 -8.544922 -0.001505 -0.009645 -19.035263 10.707273 12.184218 2.000000 -2.000000 0.000000 -79.575729 18.289330 -27.166061 -64.754944 -0.527040 8.725060 -8.672410 -3.530359 29.017929 -2.000000 2.000000 0.000000 90.263153 27.377707 -9.985362 61.092838 0.529832 8.679260 3.311847 -34.522083 -4.368043 -69.519257 8.583612 -5.109512 92.129951 2.646171 -4.185182 -16.914499 6.316566 -8.471914 -29.568954 -8.056151 5.090115 91.515663 -2.636298 4.157689 -56.713665 -6.526450 7.401562 
-1.380787 37.504990 -1.380787 -5.293505 0.979970 -12.825357 58.141903 3.289426 -12.311819 16.259361 0.233454 -3.445433 -8.544922 -0.001505 -0.009645 -16.481915 9.532169 12.086007 2.000000 -2.000000 0.000000 -76.187973 6.966908 -27.418745 -65.414192 -0.528676 8.728030 -8.672410 -3.530359 29.017929 -2.000000 2.000000 0.000000 94.605904 28.298325 -12.058472 69.326118 0.511995 8.765099 4.011167 -33.482948 -0.013186 -62.125755 11.854776 -6.521204 83.795090 2.061248 -4.223602 -17.017540 5.130226 -11.238808 -22.823730 -6.121267 2.526848 83.561859 -2.070257 4.179136 -55.363079 -6.011568 4.247148 
-5.608013 39.277943 -5.608013 -5.773005 1.493362 -17.553558 59.501862 3.283266 -11.140443 17.283518 0.336690 -3.924200 -8.544922 -0.001505 -0.009645 -13.277923 8.314179 12.274590 2.000000 -2.000000 0.000000 -62.093292 -20.455359 -29.779711 -63.085342 -0.532130 8.703976 -8.672410 -3.530359 29.017929 -2.000000 2.000000 0.000000 95.297440 35.748104 -11.241442 80.380394 0.505200 8.877299 7.332317 -32.762535 -2.245901 -53.604824 15.574542 -7.323415 74.158058 1.379064 -4.149002 -17.628489 4.230850 -14.336804 -15.165453 -3.652050 0.093395 74.616585 -1.435153 4.116382 -54.061714 -4.982913 0.914572 
-10.406204 41.356571 -10.406204 -6.526132 1.859092 -22.898525 60.866657 3.328722 -10.096805 18.385015 0.460434 -4.515445 -8.544922 -0.001505 -0.009645 -9.544171 7.012794 12.659373 2.000000 -2.000000 0.000000 -35.809143 -48.173248 -45.816273 -59.802082 -0.539087 8.677186 -8.672410 -3.530359 29.017929 -2.000000 2.000000 0.000000 93.933617 45.860229 -9.747016 89.507912 0.518965 8.975123 10.579970 -31.651571 -5.082355 -45.018929 19.140352 -7.434594 64.979782 0.746234 -3.971586 -17.328276 3.581878 -17.439903 -7.224483 -1.230464 -1.749303 64.864899 -0.741972 3.911111 -52.247398 -3.619455 -1.827675 
-15.650188 43.495197 -15.650187 -7.250961 2.330098 -28.509663 62.230530 3.432870 -9.153594 19.534672 0.603787 -5.176973 -8.544922 -0.001505 -0.009645 -5.380321 5.603249 13.165890 2.000000 -2.000000 0.000000 0.958078 -59.021133 -76.802498 -57.495480 -0.550898 8.650170 -8.672410 -3.530359 29.017929 -2.000000 2.000000 0.000000 91.832115 54.889343 -9.812984 91.904442 0.526244 9.004701 11.336164 -29.970289 -2.633673 -37.611217 21.911430 -7.019730 58.079224 0.296157 -3.798258 -14.999022 2.519537 -20.030502 0.356715 0.393733 -2.616687 54.474918 -0.072448 3.612449 -49.445732 -2.431113 -3.308247 
-21.104456 45.433552 -21.104458 -7.647066 3.198327 -34.052933 63.577797 3.584085 -8.319262 20.722773 0.756953 -5.929833 -8.544922 -0.001505 -0.009645 -0.912890 4.084704 13.705964 2.000000 -2.000000 0.000000 21.240505 -58.146671 -95.166985 -55.978947 -0.553497 8.633202 -8.688787 -3.542536 28.882919 -2.000000 2.000000 0.000000 87.711868 62.726921 -13.861448 84.490707 0.513641 8.930779 8.384051 -27.263584 8.468745 -31.131254 23.905312 -6.383048 52.912834 -0.016036 -3.611768 -9.084964 0.010818 -22.044928 9.174750 1.004813 -2.523257 40.995613 0.690670 3.038006 -44.722279 -1.679895 -3.454189 
-26.633862 46.941105 -26.633862 -7.485495 4.825629 -39.178585 64.925003 3.756280 -7.535519 21.930538 0.918883 -6.733342 -8.544922 -0.001505 -0.009645 3.765187 2.442750 14.220241 2.000000 -2.000000 0.000000 30.642342 -55.349907 -103.568611 -54.183167 -0.563093 8.617224 -8.732124 -3.555595 28.607904 -2.000000 2.000000 0.000000 77.103539 70.800377 -24.939686 70.596878 0.510047 8.781374 4.142292 -22.825933 24.144911 -24.849350 25.494843 -5.563549 48.252464 -0.288828 -3.408483 -0.609946 -3.840927 -23.346840 19.520124 0.839454 -1.899634 24.454145 1.414495 2.087401 -38.523178 -1.295207 -2.725133 
-32.133263 47.692318 -32.133263 -6.559343 7.609810 -43.508972 66.271446 3.963218 -6.793244 23.137964 1.098083 -7.591510 -8.544922 -0.001505 -0.009645 8.535158 0.693417 14.648551 2.000000 -2.000000 0.000000 33.493698 -52.733444 -106.216415 -52.845348 -0.570326 8.606868 -8.755342 -3.580922 28.423885 -2.000000 2.000000 0.000000 53.880650 77.057617 -48.316086 55.011292 0.553499 8.623968 1.368781 -17.332674 39.222656 -19.260963 26.594515 -4.650735 44.926449 -0.491311 -3.263106 8.025206 -8.176234 -23.494835 29.041491 0.116834 -1.235386 8.735340 1.814772 1.033406 -32.309608 -1.297516 -1.690761 
-37.292126 47.587181 -37.292122 -4.618142 11.908444 -46.607964 67.600670 4.154974 -6.080225 24.335245 1.275878 -8.501462 -8.544922 -0.001505 -0.009645 13.340717 -1.089849 14.927739 2.000000 -2.000000 0.000000 33.588299 -50.469151 -106.759232 -52.690594 -0.564749 8.602626 -8.748828 -3.567612 28.472803 -2.000000 2.000000 0.000000 18.237860 79.346893 -82.891487 42.552486 0.614886 8.518400 1.102839 -12.711154 49.650986 -14.895864 27.178822 -3.637439 43.823330 -0.542945 -3.229321 14.393384 -11.907218 -22.612309 35.345844 -0.742534 -0.796403 -2.201409 1.928552 0.303625 -27.651100 -1.600336 -0.792794 
-42.045189 46.470299 -42.045185 -1.321327 18.005901 -47.858917 68.921783 4.357768 -5.379311 25.503569 1.451378 -9.432865 -8.544922 -0.001505 -0.009645 18.088430 -2.889070 15.050732 2.000000 -2.000000 0.000000 33.809547 -48.192932 -107.825386 -54.461098 -0.561512 8.622450 -8.672410 -3.530359 29.017929 -2.000000 2.000000 0.000000 -9.523743 79.116982 -107.351425 38.024448 0.642095 8.473861 3.147714 -11.090699 51.741314 -12.291748 27.211857 -2.692715 45.774719 -0.435669 -3.311286 15.985006 -13.974503 -21.333155 36.060196 -1.250427 -0.745139 -4.504939 1.920812 0.148197 -26.066366 -1.794408 -0.319897 
-46.442703 44.536945 -46.442707 3.890944 25.907465 -46.830143 70.217827 4.542065 -4.647573 26.623466 1.624048 -10.395250 -8.544922 -0.001505 -0.009645 22.693668 -4.630913 14.985406 2.000000 -2.000000 0.000000 33.606834 -46.052849 -109.146484 -58.959469 -0.540670 8.664955 -8.469489 -3.417992 30.390606 -2.000000 2.000000 0.000000 -27.675472 79.133667 -119.908913 40.766560 0.629961 8.492729 7.171674 -11.796812 46.695099 -10.875449 26.790398 -1.738033 50.495167 -0.171895 -3.512246 13.311375 -14.671093 -19.959808 31.926357 -1.396417 -1.005896 0.605036 1.911331 0.496677 -27.232336 -1.810526 -0.226945 
-50.514687 42.293179 -50.514690 11.703378 35.088329 -43.038773 71.495209 4.672190 -3.887429 27.685347 1.802249 -11.345452 -8.544922 -0.001505 -0.009645 27.076485 -6.233832 14.769305 2.000000 -2.000000 0.000000 31.576235 -44.526386 -109.462166 -65.694717 -0.523877 8.737193 -8.150773 -3.269888 32.501713 -2.000000 2.000000 0.000000 -42.658001 79.412025 -127.948120 46.465748 0.596857 8.544918 12.686320 -12.728839 38.679962 -9.742025 26.026356 -0.664138 56.822754 0.200452 -3.742994 8.957116 -14.860163 -18.369339 25.550005 -1.455274 -1.391222 8.856032 1.805743 1.058788 -29.620945 -1.784672 -0.243745 
-54.511539 40.159554 -54.511536 23.505480 44.533554 -34.968014 72.752609 4.758059 -3.068760 28.679705 1.959517 -12.306524 -8.544922 -0.001505 -0.009645 31.169064 -7.642219 14.433277 2.000000 -2.000000 0.000000 28.611454 -43.447292 -109.266251 -73.440269 -0.515327 8.808315 -7.811033 -3.113801 34.732819 -2.000000 2.000000 0.000000 -55.573093 80.026260 -132.956467 54.369442 0.558150 8.619232 19.267378 -13.190992 28.268229 -8.942619 25.030941 0.445095 64.317879 0.678471 -3.954899 3.274087 -14.636110 -16.660267 17.439003 -1.543389 -1.866737 19.537201 1.561244 1.777145 -32.927200 -1.734540 -0.377129 
